<svg width="410" height="70" viewBox="0 0 410 70" fill="none" xmlns="http://www.w3.org/2000/svg">
<path d="M34.192 69.48C29.2 69.48 24.656 68.52 20.56 66.6C16.528 64.616 13.04 61.992 10.096 58.728C7.216 55.464 4.976 51.784 3.376 47.688C1.776 43.528 0.976 39.272 0.976 34.92C0.976 30.376 1.808 26.056 3.472 21.96C5.2 17.8 7.536 14.12 10.48 10.92C13.488 7.656 17.008 5.096 21.04 3.23999C25.136 1.32 29.616 0.359997 34.48 0.359997C39.408 0.359997 43.888 1.352 47.92 3.336C52.016 5.32 55.504 7.976 58.384 11.304C61.264 14.632 63.504 18.344 65.104 22.44C66.704 26.536 67.504 30.76 67.504 35.112C67.504 39.592 66.672 43.912 65.008 48.072C63.344 52.168 61.008 55.848 58 59.112C55.056 62.312 51.536 64.84 47.44 66.696C43.408 68.552 38.992 69.48 34.192 69.48ZM34.288 57.768C37.488 57.768 40.336 57.128 42.832 55.848C45.328 54.504 47.408 52.744 49.072 50.568C50.736 48.328 51.984 45.864 52.816 43.176C53.712 40.424 54.16 37.672 54.16 34.92C54.16 31.976 53.68 29.128 52.72 26.376C51.824 23.624 50.512 21.192 48.784 19.08C47.12 16.968 45.04 15.272 42.544 13.992C40.112 12.712 37.36 12.072 34.288 12.072C31.024 12.072 28.144 12.744 25.648 14.088C23.216 15.368 21.168 17.128 19.504 19.368C17.84 21.544 16.56 23.976 15.664 26.664C14.832 29.352 14.416 32.104 14.416 34.92C14.416 37.864 14.864 40.712 15.76 43.464C16.656 46.216 17.936 48.648 19.6 50.76C21.328 52.872 23.408 54.568 25.84 55.848C28.336 57.128 31.152 57.768 34.288 57.768ZM32.944 43.752H45.424L67.888 69H55.408L32.944 43.752ZM75.8448 50.184V18.696H88.7088V47.4C88.7088 51.24 89.4128 54.152 90.8208 56.136C92.2288 58.056 94.3088 59.016 97.0608 59.016C98.7248 59.016 100.357 58.696 101.957 58.056C103.621 57.352 105.125 56.328 106.469 54.984C107.877 53.64 109.061 51.944 110.021 49.896V18.696H122.885V54.6C122.885 55.944 123.109 56.904 123.557 57.48C124.069 58.056 124.869 58.408 125.957 58.536V69C124.677 69.192 123.589 69.32 122.693 69.384C121.861 69.512 121.093 69.576 120.389 69.576C118.085 69.576 116.197 69.064 114.725 68.04C113.317 66.952 112.485 65.48 112.229 63.624L111.941 59.592C109.701 62.984 106.821 65.576 103.301 67.368C99.7808 69.096 95.9088 69.96 91.6848 69.96C86.5008 69.96 82.5648 68.296 79.8768 64.968C77.1888 61.576 75.8448 56.648 75.8448 50.184ZM165.621 29.832C161.717 29.832 158.229 30.6 155.156 32.136C152.085 33.608 149.877 35.752 148.533 38.568V69H135.669V18.696H147.477V29.448C149.269 25.992 151.541 23.272 154.293 21.288C157.045 19.304 159.957 18.216 163.029 18.024C163.733 18.024 164.277 18.024 164.661 18.024C165.045 18.024 165.365 18.056 165.621 18.12V29.832ZM169.056 54.12C169.056 50.856 169.952 48.008 171.744 45.576C173.6 43.08 176.16 41.16 179.424 39.816C182.688 38.472 186.432 37.8 190.656 37.8C192.768 37.8 194.912 37.96 197.088 38.28C199.264 38.6 201.152 39.112 202.752 39.816V37.128C202.752 33.928 201.792 31.464 199.872 29.736C198.016 28.008 195.232 27.144 191.52 27.144C188.768 27.144 186.144 27.624 183.648 28.584C181.152 29.544 178.528 30.952 175.776 32.808L171.648 24.36C174.976 22.184 178.368 20.552 181.824 19.464C185.344 18.376 189.024 17.832 192.864 17.832C200.032 17.832 205.6 19.624 209.568 23.208C213.6 26.792 215.616 31.912 215.616 38.568V54.6C215.616 55.944 215.84 56.904 216.288 57.48C216.8 58.056 217.6 58.408 218.688 58.536V69C217.536 69.192 216.48 69.352 215.52 69.48C214.624 69.608 213.856 69.672 213.216 69.672C210.656 69.672 208.704 69.096 207.36 67.944C206.08 66.792 205.28 65.384 204.96 63.72L204.672 61.128C202.496 63.944 199.776 66.12 196.512 67.656C193.248 69.192 189.92 69.96 186.528 69.96C183.2 69.96 180.192 69.288 177.504 67.944C174.88 66.536 172.8 64.648 171.264 62.28C169.792 59.848 169.056 57.128 169.056 54.12ZM200.352 56.712C201.056 55.944 201.632 55.176 202.08 54.408C202.528 53.64 202.752 52.936 202.752 52.296V47.208C201.216 46.568 199.552 46.088 197.76 45.768C195.968 45.384 194.272 45.192 192.672 45.192C189.344 45.192 186.592 45.928 184.416 47.4C182.304 48.808 181.248 50.696 181.248 53.064C181.248 54.344 181.6 55.56 182.304 56.712C183.008 57.864 184.032 58.792 185.376 59.496C186.72 60.2 188.32 60.552 190.176 60.552C192.096 60.552 193.984 60.2 195.84 59.496C197.696 58.728 199.2 57.8 200.352 56.712ZM274.389 69H261.525V40.776C261.525 36.744 260.821 33.8 259.413 31.944C258.005 30.088 256.053 29.16 253.557 29.16C251.829 29.16 250.069 29.608 248.277 30.504C246.549 31.4 244.981 32.648 243.573 34.248C242.165 35.784 241.141 37.576 240.501 39.624V69H227.637V18.696H239.253V28.008C240.533 25.832 242.165 24.008 244.149 22.536C246.133 21 248.405 19.848 250.965 19.08C253.589 18.248 256.341 17.832 259.221 17.832C262.357 17.832 264.917 18.408 266.901 19.56C268.949 20.648 270.485 22.152 271.509 24.072C272.597 25.928 273.333 28.04 273.717 30.408C274.165 32.776 274.389 35.176 274.389 37.608V69ZM315.438 66.408C314.35 66.856 313.038 67.368 311.502 67.944C309.966 68.52 308.302 68.968 306.51 69.288C304.782 69.672 303.022 69.864 301.23 69.864C298.862 69.864 296.686 69.448 294.702 68.616C292.718 67.784 291.118 66.472 289.902 64.68C288.75 62.824 288.174 60.424 288.174 57.48V28.584H281.55V18.696H288.174V2.376H301.038V18.696H311.598V28.584H301.038V53.16C301.102 54.888 301.582 56.136 302.478 56.904C303.374 57.672 304.494 58.056 305.838 58.056C307.182 58.056 308.494 57.832 309.774 57.384C311.054 56.936 312.078 56.552 312.846 56.232L315.438 66.408ZM344.807 69.96C340.711 69.96 337.031 69.288 333.767 67.944C330.503 66.536 327.719 64.616 325.415 62.184C323.175 59.752 321.447 56.968 320.231 53.832C319.015 50.696 318.407 47.4 318.407 43.944C318.407 40.424 319.015 37.096 320.231 33.96C321.447 30.824 323.175 28.04 325.415 25.608C327.719 23.176 330.503 21.288 333.767 19.944C337.031 18.536 340.711 17.832 344.807 17.832C348.903 17.832 352.551 18.536 355.751 19.944C359.015 21.288 361.799 23.176 364.103 25.608C366.407 28.04 368.135 30.824 369.287 33.96C370.503 37.096 371.111 40.424 371.111 43.944C371.111 47.4 370.503 50.696 369.287 53.832C368.135 56.968 366.407 59.752 364.103 62.184C361.863 64.616 359.111 66.536 355.847 67.944C352.583 69.288 348.903 69.96 344.807 69.96ZM331.655 43.944C331.655 46.888 332.231 49.512 333.383 51.816C334.535 54.056 336.103 55.816 338.087 57.096C340.071 58.376 342.311 59.016 344.807 59.016C347.239 59.016 349.447 58.376 351.431 57.096C353.415 55.752 354.983 53.96 356.135 51.72C357.351 49.416 357.959 46.792 357.959 43.848C357.959 40.968 357.351 38.376 356.135 36.072C354.983 33.768 353.415 31.976 351.431 30.696C349.447 29.416 347.239 28.776 344.807 28.776C342.311 28.776 340.071 29.448 338.087 30.792C336.103 32.072 334.535 33.864 333.383 36.168C332.231 38.408 331.655 41 331.655 43.944ZM409.746 29.832C405.842 29.832 402.354 30.6 399.281 32.136C396.21 33.608 394.002 35.752 392.658 38.568V69H379.794V18.696H391.602V29.448C393.394 25.992 395.666 23.272 398.418 21.288C401.17 19.304 404.082 18.216 407.154 18.024C407.858 18.024 408.402 18.024 408.786 18.024C409.17 18.024 409.49 18.056 409.746 18.12V29.832Z" fill="#0D9373"/>
</svg>
